<svg width="24" height="24" viewBox="0 0 24 24" fill="none" xmlns="http://www.w3.org/2000/svg">
<g clip-path="url(#clip0_45_43)">
<path d="M1.18539 10.6142L4.0961 22.3064C4.16262 22.5717 4.39937 22.7571 4.67038 22.7571H19.33C19.6009 22.7571 19.8372 22.572 19.903 22.3072L22.815 10.6142H1.18539ZM19.33 23.7571H4.67038C3.94009 23.7571 3.304 23.2591 3.12592 22.5488L0.0604634 10.235C-0.0180671 9.91955 0.220574 9.61422 0.545655 9.61422H23.4547C23.7798 9.61422 24.0185 9.91958 23.9399 10.235L20.8734 22.5485C20.697 23.2586 20.0607 23.7571 19.33 23.7571Z" fill="black"/>
<path d="M5.24891 7.64768C5.04637 7.83538 4.73001 7.82334 4.54232 7.62079C4.35462 7.41825 4.36666 7.10189 4.56921 6.9142L10.1809 1.714C11.2082 0.761999 12.7917 0.761999 13.8191 1.71401L19.4307 6.9142C19.6333 7.10189 19.6453 7.41825 19.4576 7.62079C19.2699 7.82334 18.9536 7.83538 18.751 7.64768L13.1394 2.4475C12.4955 1.85083 11.5044 1.85083 10.8605 2.44749L5.24891 7.64768Z" fill="black"/>
<path d="M1.36365 13.8999C1.08751 13.8999 0.863647 13.6761 0.863647 13.3999C0.863647 13.1238 1.08751 12.8999 1.36365 12.8999H22.6364C22.9125 12.8999 23.1364 13.1238 23.1364 13.3999C23.1364 13.6761 22.9125 13.8999 22.6364 13.8999H1.36365Z" fill="black"/>
<path d="M2.18182 17.1856C1.90568 17.1856 1.68182 16.9618 1.68182 16.6856C1.68182 16.4095 1.90568 16.1856 2.18182 16.1856H21.8182C22.0943 16.1856 22.3182 16.4095 22.3182 16.6856C22.3182 16.9618 22.0943 17.1856 21.8182 17.1856H2.18182Z" fill="black"/>
<path d="M3 20.4714C2.72386 20.4714 2.5 20.2475 2.5 19.9714C2.5 19.6952 2.72386 19.4714 3 19.4714H21C21.2761 19.4714 21.5 19.6952 21.5 19.9714C21.5 20.2475 21.2761 20.4714 21 20.4714H3Z" fill="black"/>
</g>
<defs>
<clipPath id="clip0_45_43">
<rect width="24" height="24" fill="white"/>
</clipPath>
</defs>
</svg>
