<svg version="1.2" xmlns="http://www.w3.org/2000/svg" viewBox="0 0 24 24" width="24" height="24">
	<title>communityactive-icon-svg</title>
	<style>
		.s0 { fill: #000000 } 
		.s1 { fill: #000000;stroke: #000000;stroke-width: .5 } 
	</style>
	<g id="Pasta 1">
		<path id="Forma 2" class="s0" d="m6 21h12v3h-12z"/>
		<path id="Forma 3" class="s0" d="m7 20h10v4h-10z"/>
		<path id="Forma 4" class="s0" d="m9 19h6v3h-6z"/>
		<path id="Forma 5" class="s0" d="m13 19h3v3h-3z"/>
		<path id="Forma 6" class="s0" d="m8 19h3v2h-3z"/>
		<path id="Camada 2" class="s0" d="m12 17c-1.7 0-3-1.3-3-3 0-1.7 1.3-3 3-3 1.7 0 3 1.3 3 3 0 1.7-1.3 3-3 3z"/>
	</g>
	<path id="Camada 3" class="s1" d="m17.7 7.9q-0.1 0.1-0.2 0.1-0.1 0-0.2-0.1l-2.4-2.3q0-0.1-0.1-0.1-0.1-0.1-0.2-0.3-0.2-0.2-0.3-0.4-0.1-0.2-0.2-0.4-0.1-0.3-0.1-0.6 0-0.8 0.5-1.3 0.5-0.5 1.4-0.5 0.2 0 0.5 0.1 0.2 0.1 0.4 0.2 0.2 0.2 0.4 0.3 0.2 0.1 0.3 0.2 0.1-0.1 0.3-0.2 0.2-0.1 0.4-0.3 0.2-0.1 0.4-0.2 0.3-0.1 0.5-0.1 0.9 0 1.4 0.5 0.5 0.5 0.5 1.3 0 0.9-0.9 1.8l-2.4 2.3z"/>
	<path id="Layer" fill-rule="evenodd" class="s0" d="m4 5.4c0 0.3-0.2 0.5-0.5 0.5h-0.5v0.5c0 0.3-0.2 0.5-0.5 0.5-0.3 0-0.5-0.2-0.5-0.5v-0.5h-0.5c-0.3 0-0.5-0.2-0.5-0.5 0-0.3 0.2-0.5 0.5-0.5h0.5v-0.5c0-0.3 0.2-0.5 0.5-0.5 0.3 0 0.5 0.2 0.5 0.5v0.5h0.5c0.3 0 0.5 0.2 0.5 0.5z"/>
	<path id="Layer" fill-rule="evenodd" class="s0" d="m9.6 6.8c0.2 0.2 0.2 0.5 0 0.7q-0.2 0.1-0.4 0.1-0.2 0-0.3-0.1l-0.4-0.4-0.4 0.4q-0.1 0.1-0.3 0.1-0.2 0-0.4-0.1c-0.2-0.2-0.2-0.5 0-0.7l0.4-0.4-0.4-0.3c-0.2-0.2-0.2-0.6 0-0.7 0.2-0.2 0.6-0.2 0.7 0l0.4 0.3 0.4-0.3c0.1-0.2 0.5-0.2 0.7 0 0.2 0.1 0.2 0.5 0 0.7l-0.4 0.3z"/>
	<path id="Layer" fill-rule="evenodd" class="s0" d="m5.6 3.9c-0.3 0-0.5-0.2-0.5-0.5 0-0.3 0.2-0.5 0.4-0.5h0.1c0.2 0 0.5 0.2 0.5 0.5 0 0.3-0.3 0.5-0.5 0.5z"/>
	<path id="Layer" fill-rule="evenodd" class="s0" d="m21.6 8.9c-0.3 0-0.5-0.2-0.5-0.5 0-0.3 0.2-0.5 0.4-0.5h0.1c0.2 0 0.5 0.2 0.5 0.5 0 0.3-0.3 0.5-0.5 0.5z"/>
	<path id="Layer" fill-rule="evenodd" class="s0" d="m4.1 23.9h-3.6c-0.3 0-0.5-0.3-0.5-0.5 0-3.1 2.9-4.5 5.8-4.5q-0.5 0.5-0.8 1c-1.9 0.3-3.7 1.2-4 3h3q0 0.2 0 0.5 0 0.2 0.1 0.5z"/>
	<path id="Layer copy 2" fill-rule="evenodd" class="s0" d="m9.9 23.9h-4.3c-0.3 0-0.6-0.3-0.6-0.6 0-3.7 3.5-5.4 7-5.4q-0.6 0.5-1 1.2c-2.3 0.3-4.4 1.4-4.8 3.6h3.6q0 0.3 0 0.6 0 0.3 0.1 0.6z"/>
	<path id="Camada 1" class="s0" d="m11 18h2v1h-2z"/>
	<path id="Forma 1" class="s0" d="m5 22.7h14v1.3h-14z"/>
	<path id="Layer copy 4" fill-rule="evenodd" class="s0" d="m19 23.3c0 0.3-0.3 0.6-0.6 0.6h-4.3q0.1-0.3 0.1-0.6 0-0.3 0-0.6h3.5c-0.3-2.2-2.4-3.3-4.7-3.6q-0.4-0.7-1-1.2c3.5 0 7 1.7 7 5.4z"/>
	<path id="Layer" fill-rule="evenodd" class="s0" d="m19 17.9c-1.7 0-3-1.4-3-3 0-1.7 1.3-3 3-3 1.7 0 3 1.3 3 3 0 1.6-1.3 3-3 3zm0-5c-1.1 0-2 0.9-2 2 0 1.1 0.9 2 2 2 1.1 0 2-0.9 2-2 0-1.1-0.9-2-2-2z"/>
	<path id="Layer" fill-rule="evenodd" class="s0" d="m5 17.9c-1.7 0-3-1.4-3-3 0-1.7 1.3-3 3-3 1.7 0 3 1.3 3 3 0 1.6-1.3 3-3 3zm0-5c-1.1 0-2 0.9-2 2 0 1.1 0.9 2 2 2 1.1 0 2-0.9 2-2 0-1.1-0.9-2-2-2z"/>
	<path id="Layer" fill-rule="evenodd" class="s0" d="m24 23.4c0 0.2-0.2 0.5-0.5 0.5h-3.6q0.1-0.3 0.1-0.5 0-0.3 0-0.5h3c-0.3-1.8-2.1-2.7-4-3q-0.3-0.5-0.8-1c2.9 0 5.8 1.4 5.8 4.5z"/>
</svg>