<?xml version="1.0" encoding="utf-8"?>
<!-- Generator: Adobe Illustrator 25.0.1, SVG Export Plug-In . SVG Version: 6.00 Build 0)  -->
<svg version="1.1" id="Layer_1" xmlns="http://www.w3.org/2000/svg" xmlns:xlink="http://www.w3.org/1999/xlink" x="0px" y="0px"
	 viewBox="0 0 2000 2000" style="enable-background:new 0 0 2000 2000;" xml:space="preserve">
<g>
	<path d="M1707.1,292.9C1518.2,104,1267.1,0,1000,0S481.8,104,292.9,292.9S0,732.9,0,1000c0,267.2,104,518.3,292.9,707.1
		C481.8,1896,732.9,2000,1000,2000h1000V1000C2000,732.9,1896,481.8,1707.1,292.9z M1913,1913h-913c-243.8,0-473.2-94.9-645.6-267.4
		C182,1473.2,87,1243.9,87,1000c0-243.8,94.9-473.1,267.4-645.6C526.8,181.9,756.2,87,1000,87s473.2,94.9,645.6,267.4
		C1818,526.8,1913,756.1,1913,1000V1913z"/>
	<circle cx="673.9" cy="1021.7" r="87"/>
	<circle cx="1015.1" cy="1021.7" r="87"/>
	<circle cx="1356.2" cy="1021.7" r="87"/>
</g>
</svg>
