<?xml version="1.0" encoding="UTF-8"?>
<svg id="Camada_2" data-name="Camada 2" xmlns="http://www.w3.org/2000/svg" viewBox="0 0 2000 1881.9">
  <defs>
    <style>
      .cls-1 {
        fill: #000;
        stroke-width: 0px;
      }
    </style>
  </defs>
  <g id="Layer_1" data-name="Layer 1">
    <path class="cls-1" d="M422.3,761.31c-32.8,0-59.35,26.6-59.35,59.35s26.55,59.35,59.35,59.35,59.35-26.55,59.35-59.35-26.55-59.35-59.35-59.35"/>
    <path class="cls-1" d="M815.85,880.02c32.8,0,59.35-26.6,59.35-59.35s-26.55-59.35-59.35-59.35-59.35,26.6-59.35,59.35,26.55,59.35,59.35,59.35"/>
    <path class="cls-1" d="M1209.4,761.31c-32.8,0-59.35,26.6-59.35,59.35s26.55,59.35,59.35,59.35,59.35-26.55,59.35-59.35-26.55-59.35-59.35-59.35"/>
    <path class="cls-1" d="M1602.94,761.31c-32.8,0-59.35,26.6-59.35,59.35s26.55,59.35,59.35,59.35,59.35-26.55,59.35-59.35-26.55-59.35-59.35-59.35"/>
    <path class="cls-1" d="M422.3,1105.69c-32.8,0-59.35,26.6-59.35,59.35s26.55,59.35,59.35,59.35,59.35-26.6,59.35-59.35-26.55-59.35-59.35-59.35"/>
    <path class="cls-1" d="M422.3,1444.14c-32.8,0-59.35,26.55-59.35,59.35s26.55,59.35,59.35,59.35,59.35-26.6,59.35-59.35-26.55-59.35-59.35-59.35"/>
    <path class="cls-1" d="M815.85,1444.14c-32.8,0-59.35,26.55-59.35,59.35s26.55,59.35,59.35,59.35,59.35-26.6,59.35-59.35-26.55-59.35-59.35-59.35"/>
    <path class="cls-1" d="M1209.4,1105.69c-32.8,0-59.35,26.6-59.35,59.35s26.55,59.35,59.35,59.35,59.35-26.6,59.35-59.35-26.55-59.35-59.35-59.35"/>
    <path class="cls-1" d="M1209.4,1444.14c-32.8,0-59.35,26.55-59.35,59.35s26.55,59.35,59.35,59.35,59.35-26.6,59.35-59.35-26.55-59.35-59.35-59.35"/>
    <path class="cls-1" d="M1602.94,1105.69c-32.8,0-59.35,26.6-59.35,59.35s26.55,59.35,59.35,59.35,59.35-26.6,59.35-59.35-26.55-59.35-59.35-59.35"/>
    <path class="cls-1" d="M1940.65,252.15h-217.05v-56.5c0-107.9-87.75-195.65-195.65-195.65s-195.6,87.75-195.6,195.65v56.5h-136.7v-56.5c0-107.9-87.75-195.65-195.65-195.65s-195.6,87.75-195.6,195.65v56.5h-136.7v-56.5C667.7,87.75,579.9,0,472.05,0s-195.6,87.75-195.6,195.65v56.5H59.35c-32.8,0-59.35,26.55-59.35,59.35v1511.05c0,32.75,26.55,59.35,59.35,59.35h1881.3c32.75,0,59.35-26.6,59.35-59.35V311.5c0-32.8-26.6-59.35-59.35-59.35M1451.05,195.65c0-42.45,34.5-76.95,76.9-76.95s76.95,34.5,76.95,76.95v56.5h-153.85v-56.5ZM923.1,195.65c0-42.45,34.5-76.95,76.9-76.95s76.95,34.5,76.95,76.95v56.5h-153.85v-56.5ZM395.15,195.65c0-42.45,34.5-76.95,76.9-76.95s76.9,34.5,76.9,76.95v56.5h-153.8v-56.5ZM1881.3,1763.2h-208.95l208.95-170.35v170.35ZM1881.3,1361.05h-459.95v307.4c0,65.5-36.55,94.75-118.5,94.75H118.7V370.85h430.25v56.5c0,42.4-34.5,76.95-76.9,76.95-32.8,0-59.35,26.55-59.35,59.35s26.55,59.35,59.35,59.35c107.85,0,195.65-87.75,195.65-195.65v-56.5h409.25v56.5c0,42.4-34.55,76.95-76.95,76.95-32.8,0-59.35,26.55-59.35,59.35s26.55,59.35,59.35,59.35c107.9,0,195.65-87.75,195.65-195.65v-56.5h409.25v56.5c0,42.4-34.5,76.95-76.95,76.95-32.8,0-59.35,26.55-59.35,59.35s26.55,59.35,59.35,59.35c107.9,0,195.65-87.75,195.65-195.65v-56.5h157.7v990.2Z"/>
    <path class="cls-1" d="M945.73,1060.46c-35.85-35.85-94-35.85-129.85,0h-.05c-35.85-35.85-94-35.85-129.85,0l-.05.05c-35.85,35.85-35.85,94,0,129.85h.05l129.85,129.9,129.9-129.9h.05c35.85-35.85,35.85-94,0-129.85l-.05-.05Z"/>
  </g>
</svg>