<svg width="24" height="24" viewBox="0 0 24 24" fill="none" xmlns="http://www.w3.org/2000/svg">
<path d="M21.1579 3.64267C23.6681 5.70423 23.538 10.3796 21.2232 12.7428C19.1811 15.3498 14.406 20.3668 12.7355 21.7356C12.3061 22.0881 11.6962 22.0881 11.2657 21.7359C9.59411 20.3663 4.81927 15.3491 2.81239 12.7814C0.456552 10.3734 0.33188 5.67863 2.82428 3.66167C5.24733 1.18387 9.91916 1.44841 12.0004 4.64865C14.0763 1.45661 18.7296 1.18525 21.1579 3.64267ZM20.5014 4.41233C18.3023 2.16637 13.9083 2.59059 12.4111 5.84525C12.2466 6.20296 11.7493 6.20296 11.5848 5.84525C10.0876 2.59059 5.69358 2.16637 3.49449 4.41233C1.43929 6.0799 1.54582 10.094 3.55536 12.1535C5.54172 14.6921 10.236 19.628 11.8394 20.9426C11.9328 21.0191 12.0635 21.0191 12.1563 20.9428C13.7593 19.6285 18.4538 14.6927 20.475 12.1151C22.4503 10.0939 22.5565 6.07979 20.5014 4.41233Z" fill="black"/>
</svg>
