<svg width="33" height="33" viewBox="0 0 38 36" fill="none" xmlns="http://www.w3.org/2000/svg">
<path d="M37.0865 6.13951C35.8424 3.20605 33.6941 1.27998 30.6961 0.411979C27.425 -0.538386 24.2875 0.158549 21.3623 2.4711C20.7372 2.96529 20.1546 3.52918 19.5902 4.07405C19.3899 4.26413 19.1897 4.46687 18.9833 4.65694C18.8377 4.51122 18.692 4.3655 18.5403 4.20711C18.0791 3.73826 17.6057 3.25674 17.0899 2.81957C14.013 0.209235 10.6752 -0.589072 7.16739 0.443658C4.76415 1.14693 2.72503 2.8069 1.42024 5.11312C0.12759 7.40667 -0.303294 10.0867 0.212553 12.6527C0.837639 15.7319 2.31842 18.5323 4.61243 20.9779C7.90171 24.4816 11.2881 28.0043 14.5652 31.4066C15.8822 32.7814 17.2477 34.2006 18.5889 35.5945C18.6374 35.6452 18.692 35.6959 18.7466 35.7466C18.777 35.7719 18.8073 35.8036 18.8437 35.8416L19.0076 36L19.1715 35.8416C19.2139 35.8036 19.2443 35.7719 19.2807 35.7402C19.3475 35.6769 19.4081 35.6199 19.4628 35.5628C23.9415 30.8934 28.4142 26.2176 32.893 21.5481C34.216 20.1669 35.2477 18.7984 36.0306 17.3602C37.0805 15.4468 37.6995 13.6601 37.9119 11.9114C38.1607 9.95365 37.8815 8.00857 37.0865 6.13951Z" fill="black"/>
</svg>
