<svg width="33" height="33" viewBox="0 0 38 36" fill="none" xmlns="http://www.w3.org/2000/svg">
<g clip-path="url(#clip0_1234_1169)">
<path d="M37.0838 6.13943C35.8398 3.20596 33.6916 1.27988 30.6939 0.411874C27.423 -0.538495 24.2857 0.158443 21.3607 2.47101C20.7357 2.9652 20.1531 3.52909 19.5888 4.07397C19.3885 4.26404 19.1883 4.46678 18.9819 4.65686C18.8363 4.51114 18.6907 4.36541 18.539 4.20702C18.0778 3.73817 17.6044 3.25665 17.0886 2.81948C14.012 0.209129 10.6744 -0.589182 7.16687 0.443553C4.7638 1.14683 2.72483 2.80681 1.42014 5.11304C0.127581 7.40659 -0.303272 10.0866 0.212538 12.6526C0.837578 15.7318 2.31825 18.5323 4.61209 20.9779C7.90114 24.4816 11.2873 28.0043 14.5642 31.4066C15.881 32.7815 17.2464 34.2007 18.5875 35.5946C18.636 35.6452 18.6907 35.6959 18.7453 35.7466C18.7756 35.772 18.806 35.8036 18.8424 35.8417L19.0062 36L19.1701 35.8417C19.2125 35.8036 19.2429 35.772 19.2793 35.7403C19.346 35.6769 19.4067 35.6199 19.4613 35.5629C23.9398 30.8934 28.4122 26.2176 32.8906 21.5481C34.2135 20.1669 35.2451 18.7984 36.0279 17.3601C37.0778 15.4467 37.6967 13.66 37.9091 11.9113C38.1579 9.95359 37.8788 8.0085 37.0838 6.13943ZM32.9938 16.8153C32.3991 17.7023 31.6709 18.6083 30.8274 19.4953C27.9146 22.5618 24.9411 25.6664 22.0586 28.6695C21.0816 29.6896 20.0985 30.7097 19.1215 31.7361C19.0851 31.7741 19.0487 31.8121 19.0062 31.8501C18.988 31.8374 18.9759 31.8184 18.9637 31.8057C17.7986 30.5893 16.6274 29.3665 15.4623 28.15C12.5738 25.1405 9.58814 22.0296 6.67533 18.9377C4.66671 16.8089 3.4591 14.5027 2.9797 11.886C2.60347 9.83321 3.02825 7.77407 4.17517 6.08875C5.29781 4.44144 6.96661 3.36436 8.88421 3.06657C9.27865 3.00322 9.66702 2.97154 10.0554 2.97154C11.9184 2.97154 13.6721 3.69382 15.3834 5.15739C16.6638 6.24714 17.659 7.65369 18.545 9.00322C18.5936 9.07925 18.6482 9.15527 18.7149 9.24398C18.7453 9.28833 18.7817 9.33901 18.8242 9.39604L19.0244 9.67481L19.2186 9.3897C19.3036 9.26298 19.3885 9.1426 19.4674 9.02222C19.6373 8.76879 19.8072 8.52803 19.9711 8.28093C21.3183 6.26615 22.5805 4.97998 24.0733 4.11832C26.6827 2.60406 29.2314 2.55971 31.6527 3.99794C33.6734 5.1954 34.8325 7.08347 35.1055 9.59878C35.3483 11.9937 34.6808 14.2809 32.9938 16.8153Z" fill="black"/>
</g>
<defs>
<clipPath id="clip0_1234_1169">
<rect width="38" height="36" fill="white"/>
</clipPath>
</defs>
</svg>
