<svg width="28" height="26" viewBox="0 0 28 26" fill="none" xmlns="http://www.w3.org/2000/svg">
<path d="M27.3249 4.43411C26.4083 2.31549 24.8254 0.924434 22.6165 0.297542C20.2064 -0.388836 17.8947 0.114508 15.7395 1.78469C15.2789 2.14161 14.8497 2.54886 14.4338 2.94239C14.2863 3.07966 14.1387 3.22609 13.9867 3.36336C13.8794 3.25812 13.7721 3.15287 13.6603 3.03848C13.3205 2.69987 12.9717 2.3521 12.5916 2.03637C10.3246 0.151115 7.86533 -0.425443 5.28085 0.320421C3.51017 0.828341 2.00777 2.02721 1.04642 3.69283C0.094007 5.34928 -0.223463 7.28487 0.156607 9.13809C0.617162 11.362 1.70819 13.3845 3.39838 15.1508C5.82189 17.6812 8.31694 20.2254 10.7315 22.6826C11.7018 23.6756 12.7079 24.7006 13.696 25.7073C13.7318 25.7439 13.7721 25.7805 13.8123 25.8171C13.8347 25.8354 13.857 25.8583 13.8838 25.8857L14.0046 26.0001L14.1253 25.8857C14.1566 25.8583 14.179 25.8354 14.2058 25.8125C14.255 25.7667 14.2997 25.7256 14.3399 25.6844C17.6398 22.312 20.9353 18.935 24.2352 15.5626C25.2099 14.5651 25.9701 13.5767 26.5469 12.538C27.3204 11.156 27.7765 9.86565 27.933 8.60272C28.1164 7.18878 27.9107 5.78399 27.3249 4.43411ZM24.3112 12.1444C23.873 12.785 23.3364 13.4394 22.7149 14.08C20.5686 16.2947 18.3776 18.5369 16.2537 20.7059C15.5338 21.4426 14.8094 22.1793 14.0895 22.9206C14.0627 22.948 14.0359 22.9755 14.0046 23.0029C13.9912 22.9938 13.9822 22.98 13.9733 22.9709C13.1148 22.0923 12.2518 21.2092 11.3933 20.3306C9.26488 18.1571 7.06494 15.9104 4.91866 13.6773C3.43862 12.1399 2.54881 10.4742 2.19557 8.58441C1.91834 7.10184 2.23134 5.61468 3.07644 4.39751C3.90365 3.20778 5.13329 2.42989 6.54626 2.21482C6.8369 2.16907 7.12307 2.14619 7.40924 2.14619C8.78197 2.14619 10.0742 2.66783 11.3351 3.72486C12.2786 4.5119 13.0119 5.52774 13.6648 6.5024C13.7005 6.55731 13.7408 6.61222 13.7899 6.67628C13.8123 6.70831 13.8391 6.74492 13.8704 6.7861L14.018 6.98744L14.1611 6.78153C14.2237 6.69001 14.2863 6.60307 14.3444 6.51613C14.4696 6.33309 14.5948 6.15921 14.7155 5.98075C15.7082 4.52563 16.6382 3.59673 17.7382 2.97442C19.6609 1.88079 21.5389 1.84876 23.323 2.88748C24.812 3.75231 25.666 5.11592 25.8672 6.93253C26.0461 8.6622 25.5542 10.3141 24.3112 12.1444Z" fill="black"/>
</svg>
