<svg width="28" height="26" viewBox="0 0 28 26" fill="none" xmlns="http://www.w3.org/2000/svg">
<path d="M27.3269 4.43409C26.4102 2.31548 24.8272 0.92443 22.6182 0.297541C20.2079 -0.388834 17.896 0.114507 15.7406 1.78469C15.2801 2.1416 14.8508 2.54885 14.4349 2.94237C14.2873 3.07965 14.1398 3.22607 13.9877 3.36335C13.8804 3.2581 13.7731 3.15286 13.6613 3.03846C13.3214 2.69985 12.9726 2.35209 12.5925 2.03636C10.3254 0.151114 7.8659 -0.425441 5.28123 0.32042C3.51042 0.828337 2.00792 2.02721 1.04649 3.69281C0.0940139 5.34926 -0.22348 7.28484 0.156618 9.13805C0.617208 11.3619 1.70831 13.3844 3.39863 15.1507C5.82232 17.6811 8.31755 20.2253 10.7323 22.6825C11.7027 23.6755 12.7088 24.7005 13.6971 25.7071C13.7328 25.7438 13.7731 25.7804 13.8133 25.817C13.8357 25.8353 13.858 25.8581 13.8849 25.8856L14.0056 26L14.1263 25.8856C14.1576 25.8581 14.18 25.8353 14.2068 25.8124C14.256 25.7666 14.3007 25.7254 14.341 25.6843C17.6411 22.3119 20.9368 18.9349 24.2369 15.5625C25.2118 14.565 25.972 13.5766 26.5488 12.5379C27.3225 11.156 27.7786 9.86561 27.9351 8.60268C28.1184 7.18875 27.9127 5.78397 27.3269 4.43409Z" fill="black"/>
</svg>
