<?xml version="1.0" encoding="UTF-8"?>
<svg xmlns="http://www.w3.org/2000/svg" xmlns:xlink="http://www.w3.org/1999/xlink" width="30px" height="30px" viewBox="0 0 30 30" version="1.1">
<g id="surface1">
<path style=" stroke:none;fill-rule:nonzero;fill:rgb(0%,0%,0%);fill-opacity:1;" d="M 14.992188 3.136719 C 10.636719 3.140625 7.058594 6.734375 7.070312 11.089844 C 7.078125 12.757812 7.597656 14.300781 8.480469 15.574219 L 11.683594 21.121094 L 15 26.863281 L 18.316406 21.121094 L 21.519531 15.574219 C 22.40625 14.296875 22.929688 12.742188 22.929688 11.0625 C 22.929688 6.679688 19.375 3.128906 14.992188 3.136719 Z M 15 15.511719 C 12.378906 15.511719 10.25 13.382812 10.25 10.761719 C 10.25 8.140625 12.378906 6.011719 15 6.011719 C 17.621094 6.011719 19.75 8.140625 19.75 10.761719 C 19.75 13.386719 17.621094 15.511719 15 15.511719 Z M 15 15.511719 "/>
</g>
</svg>
