<svg width="24" height="24" viewBox="0 0 24 24" fill="none" xmlns="http://www.w3.org/2000/svg">
<g clip-path="url(#clip0_414_1118)">
<path d="M23 23V11.0322H1V23H0V24H24V23H23ZM11.5 23H8V14H11.5V23ZM16 23H12.5V14H16V23Z" fill="black"/>
<path d="M23 3.5C23 3.43433 22.9871 3.36929 22.962 3.30861C22.9369 3.24793 22.9001 3.1928 22.8536 3.14636C22.8072 3.09992 22.7521 3.0631 22.6914 3.03798C22.6307 3.01287 22.5657 2.99996 22.5 3H1.5C1.43433 2.99996 1.36929 3.01287 1.30861 3.03798C1.24793 3.0631 1.1928 3.09992 1.14636 3.14636C1.09992 3.1928 1.0631 3.24793 1.03798 3.30861C1.01287 3.36929 0.999962 3.43433 1 3.5V4.03223H23V3.5Z" fill="black"/>
<path d="M23 5.03223H1V6.03223H23V5.03223Z" fill="black"/>
<path d="M23 9.03223H1V10.0322H23V9.03223Z" fill="black"/>
<path d="M23 7.03223H1V8.03223H23V7.03223Z" fill="black"/>
</g>
<defs>
<clipPath id="clip0_414_1118">
<rect width="24" height="24" fill="white"/>
</clipPath>
</defs>
</svg>
